<?xml version="1.0" standalone="no"?>
<!DOCTYPE svg PUBLIC "-//W3C//DTD SVG 20010904//EN"
 "http://www.w3.org/TR/2001/REC-SVG-20010904/DTD/svg10.dtd">
<svg version="1.0" xmlns="http://www.w3.org/2000/svg"
 width="1042.000000pt" height="1042.000000pt" viewBox="0 0 1042.000000 1042.000000"
 preserveAspectRatio="xMidYMid meet">

<g transform="translate(0.000000,1042.000000) scale(0.100000,-0.100000)"
fill="#000000" stroke="none">
<path d="M0 5210 l0 -5210 5208 2 5207 3 3 5208 2 5207 -5210 0 -5210 0 0
-5210z m2033 993 c2 -5 -58 -118 -134 -252 -146 -257 -146 -258 -179 -456 -6
-38 -16 -75 -22 -82 -6 -7 -32 -13 -58 -13 -57 0 -64 11 -50 75 5 24 16 88 24
142 12 75 24 116 53 173 48 94 212 391 225 408 11 13 134 17 141 5z m-682
-259 c39 -19 90 -73 105 -111 24 -57 18 -134 -17 -199 -17 -33 -34 -77 -38
-99 l-7 -40 -19 35 c-15 27 -21 65 -25 160 -6 111 -7 116 -10 50 -2 -41 -2
-97 -1 -123 3 -46 2 -48 -17 -38 -26 14 -62 73 -73 118 -6 28 -2 55 18 117 17
53 23 93 20 118 -5 36 -4 38 16 32 12 -4 34 -13 48 -20z m-245 -250 c64 7 110
-8 142 -49 30 -38 28 -48 -10 -40 -27 5 -23 2 18 -18 70 -34 76 -47 22 -47
-24 0 -59 -5 -78 -10 -48 -14 -105 -3 -142 28 -33 28 -67 93 -68 129 0 20 2
21 31 11 17 -6 54 -8 85 -4z m1525 -285 c94 -32 149 -116 149 -231 l0 -68 -74
0 -73 0 -7 60 c-8 67 -36 100 -88 100 -47 0 -78 -39 -78 -100 0 -28 7 -67 15
-86 8 -19 67 -89 130 -155 146 -151 178 -209 178 -333 1 -66 -4 -91 -25 -137
-42 -91 -109 -129 -228 -129 -53 0 -78 6 -121 28 -87 44 -119 108 -119 240 l0
72 74 0 73 0 6 -72 c7 -82 23 -105 78 -114 29 -5 41 -1 65 19 26 23 29 31 28
84 0 80 -18 109 -150 244 -147 150 -169 193 -169 329 0 86 3 100 29 148 29 52
70 86 124 102 41 12 144 12 183 -1z m6950 0 c94 -32 149 -116 149 -231 l0 -68
-74 0 -73 0 -7 60 c-8 67 -36 100 -88 100 -47 0 -78 -39 -78 -100 0 -28 7 -67
15 -86 8 -19 67 -89 130 -155 146 -151 178 -209 178 -333 1 -66 -4 -91 -25
-137 -42 -91 -109 -129 -228 -129 -53 0 -78 6 -121 28 -87 44 -119 108 -119
240 l0 72 74 0 73 0 6 -72 c7 -82 23 -105 78 -114 29 -5 41 -1 65 19 26 23 29
31 28 84 0 80 -18 109 -150 244 -147 150 -169 193 -169 329 0 86 3 100 29 148
29 52 70 86 124 102 41 12 144 12 183 -1z m-6091 -74 l0 -75 -145 0 -145 0 0
-150 0 -150 115 0 115 0 0 -75 0 -75 -115 0 -115 0 0 -160 0 -160 145 0 145 0
0 -75 0 -75 -230 0 -230 0 0 535 0 535 230 0 230 0 0 -75z m439 -352 c55 -376
71 -470 71 -425 0 18 122 847 125 850 1 2 36 2 77 0 l74 -3 -82 -530 c-45
-291 -83 -531 -83 -532 -2 -6 -251 -3 -251 3 0 3 -36 240 -80 525 -44 285 -80
523 -80 529 0 6 32 10 83 10 l83 0 63 -427z m1041 352 l0 -75 -145 0 -145 0 0
-150 0 -150 115 0 115 0 0 -75 0 -75 -115 0 -115 0 0 -160 0 -160 145 0 145 0
0 -75 0 -75 -230 0 -230 0 0 535 0 535 230 0 230 0 0 -75z m473 28 c7 -27 45
-164 83 -306 l69 -259 3 306 2 306 75 0 75 0 0 -535 0 -535 -84 0 -84 0 -14
48 c-8 26 -54 197 -104 380 l-89 333 -3 -381 -2 -380 -75 0 -75 0 0 535 0 535
105 0 104 0 14 -47z m823 -28 c87 -540 108 -664 112 -661 3 4 112 710 112 729
0 4 54 7 120 7 l120 0 0 -535 0 -535 -80 0 -80 0 0 372 c0 204 -2 369 -4 367
-2 -2 -27 -157 -55 -344 -29 -187 -54 -352 -57 -367 -6 -28 -6 -28 -84 -28
l-78 0 -12 68 c-6 37 -33 195 -59 352 l-49 285 -1 -352 -1 -353 -75 0 -75 0 0
535 0 536 117 -3 117 -3 12 -70z m1191 -440 c45 -280 82 -520 82 -532 1 -22
-2 -23 -84 -23 -78 0 -85 2 -85 20 0 10 -5 53 -11 95 l-11 75 -104 0 -103 0
-5 -32 c-3 -18 -10 -60 -16 -92 -5 -33 -10 -61 -10 -63 0 -2 -34 -3 -75 -3
-44 0 -75 4 -75 10 0 13 158 1008 165 1038 5 22 8 23 127 20 l122 -3 83 -510z
m753 433 c0 -73 -13 -130 -120 -529 -66 -246 -120 -450 -120 -453 0 -3 -39 -6
-86 -6 -77 0 -85 2 -80 18 21 70 236 881 236 890 0 9 -44 12 -165 12 l-165 0
0 75 0 75 250 0 250 0 0 -82z m790 7 l0 -75 -145 0 -145 0 0 -150 0 -150 115
0 115 0 0 -75 0 -75 -115 0 -115 0 0 -160 0 -160 145 0 145 0 0 -75 0 -75
-230 0 -230 0 0 535 0 535 230 0 230 0 0 -75z m-7116 19 c20 -8 21 -56 2 -92
-8 -15 -32 -43 -53 -63 l-38 -37 -365 -5 c-283 -4 -372 -3 -395 7 -34 15 -105
89 -105 110 0 8 -2 20 -5 28 -3 7 -1 20 5 28 8 13 62 16 347 20 186 3 395 7
465 8 69 1 133 -1 142 -4z m-112 -299 c7 -58 16 -77 112 -259 31 -59 36 -77
36 -137 0 -126 -64 -251 -187 -370 -69 -66 -185 -149 -236 -168 -80 -31 -158
-5 -301 97 -145 105 -241 238 -267 374 -17 84 -4 137 62 264 39 74 61 130 65
161 11 101 -3 92 147 95 72 2 229 3 347 3 l215 0 7 -60z"/>
<path d="M7237 5175 c-3 -16 -20 -124 -37 -240 -17 -115 -33 -220 -36 -232 -4
-22 -2 -23 76 -23 58 0 80 3 80 13 0 12 -67 465 -73 497 -2 8 -6 2 -10 -15z"/>
</g>
</svg>
